<?xml version="1.0" encoding="UTF-8" standalone="no"?>
<!-- Generator: Adobe Illustrator 16.0.0, SVG Export Plug-In . SVG Version: 6.00 Build 0)  -->

<svg
   xmlns:dc="http://purl.org/dc/elements/1.1/"
   xmlns:cc="http://creativecommons.org/ns#"
   xmlns:rdf="http://www.w3.org/1999/02/22-rdf-syntax-ns#"
   xmlns:svg="http://www.w3.org/2000/svg"
   xmlns="http://www.w3.org/2000/svg"
   xmlns:sodipodi="http://sodipodi.sourceforge.net/DTD/sodipodi-0.dtd"
   xmlns:inkscape="http://www.inkscape.org/namespaces/inkscape"
   version="1.1"
   id="Capa_1"
   x="0px"
   y="0px"
   width="510px"
   height="510px"
   viewBox="0 0 510 510"
   style="enable-background:new 0 0 510 510;"
   xml:space="preserve"
   inkscape:version="0.91 r13725"
   sodipodi:docname="shutter.svg"><metadata
     id="metadata42"><rdf:RDF><cc:Work
         rdf:about=""><dc:format>image/svg+xml</dc:format><dc:type
           rdf:resource="http://purl.org/dc/dcmitype/StillImage" /></cc:Work></rdf:RDF></metadata><defs
     id="defs40" /><sodipodi:namedview
     pagecolor="#ffffff"
     bordercolor="#666666"
     borderopacity="1"
     objecttolerance="10"
     gridtolerance="10"
     guidetolerance="10"
     inkscape:pageopacity="0"
     inkscape:pageshadow="2"
     inkscape:window-width="1169"
     inkscape:window-height="786"
     id="namedview38"
     showgrid="false"
     inkscape:zoom="0.90028971"
     inkscape:cx="150.24796"
     inkscape:cy="285.79313"
     inkscape:window-x="49"
     inkscape:window-y="43"
     inkscape:window-maximized="0"
     inkscape:current-layer="Capa_1" /><rect
     style="fill:#b3b3b3"
     id="rect4361"
     width="688.34949"
     height="554.36896"
     x="-82.524269"
     y="-25.922331" /><g
     id="g3"><g
       id="camera"><path
         d="M188.7,216.75L311.1,5.1C293.25,2.55,272.85,0,255,0C193.8,0,137.7,20.4,94.35,58.65L188.7,219.3V216.75z M497.25,178.5    c-22.95-73.95-79.05-135.15-153-160.65l-91.8,160.65H497.25z M504.9,204H313.65l7.649,12.75L443.7,428.4    C484.5,382.5,510,321.3,510,255C510,237.15,507.45,219.3,504.9,204z M165.75,255L66.3,81.6C25.5,127.5,0,188.7,0,255    c0,17.85,2.55,35.7,5.1,51h191.25L165.75,255z M12.75,331.5c22.95,73.95,79.05,135.15,153,160.65L260.1,331.5H12.75L12.75,331.5z     M298.35,331.5L198.9,504.9c17.85,5.1,35.7,5.1,56.1,5.1c61.2,0,117.3-20.4,160.65-58.65L321.3,290.7L298.35,331.5z"
         id="path6" /></g></g><g
     id="g8" /><g
     id="g10" /><g
     id="g12" /><g
     id="g14" /><g
     id="g16" /><g
     id="g18" /><g
     id="g20" /><g
     id="g22" /><g
     id="g24" /><g
     id="g26" /><g
     id="g28" /><g
     id="g30" /><g
     id="g32" /><g
     id="g34" /><g
     id="g36" /><g
     inkscape:groupmode="layer"
     id="layer1"
     inkscape:label="Layer 1" /><rect
     style="fill:#b3b3b3"
     id="rect4363"
     width="243.68932"
     height="88.349518"
     x="-35.922329"
     y="224.56311" /><path
     style="fill:#ffffff"
     d="m -82.139071,251.14582 0,-276.699031 343.689321,0 343.68932,0 0,276.699031 0,276.69903 -343.68932,0 -343.689321,0 0,-276.69903 z M 278.0551,509.35531 c 40.94498,-3.69354 79.32769,-16.672 111.16505,-37.58857 13.55646,-8.90634 26.92839,-19.44742 26.45847,-20.85717 -1.16793,-3.50379 -93.63988,-159.81251 -94.4137,-159.59094 -0.53071,0.15196 -5.73986,8.76021 -11.57589,19.12942 -5.83602,10.3692 -33.25374,58.33293 -60.92827,106.58605 -27.67452,48.25312 -50.31731,87.87138 -50.31731,88.04057 0,0.65955 14.47803,3.46188 21.84466,4.2282 11.3831,1.18413 44.8844,1.21455 57.76699,0.0524 l 0,2e-5 z m -64.64126,-97.4082 c 25.9859,-44.25347 47.08143,-80.6265 46.87897,-80.82895 -0.20244,-0.20246 -56.12303,-0.25722 -124.26794,-0.12168 l -123.899838,0.24643 3.294237,9.45844 c 23.11467,66.36702 74.594262,121.36631 137.491891,146.89232 7.09918,2.88109 12.9859,5.14292 13.0816,5.02631 0.0957,-0.11661 21.4352,-36.4194 47.42108,-80.67287 z m 244.40282,-0.32716 c 28.52634,-37.92772 46.64153,-84.38442 51.37596,-131.75442 1.94817,-19.49228 0.18644,-56.15048 -3.53818,-73.62262 l -0.56915,-2.66991 -96.09439,0 -96.0944,0 2.49129,4.12622 c 1.37021,2.26941 30.76645,53.00227 65.32496,112.73967 l 62.83368,108.61345 3.77187,-4.24452 c 2.07452,-2.33449 6.79878,-8.26903 10.49836,-13.18787 z M 146.14094,219.83514 C 144.51941,217.03174 126.02462,184.7201 105.04139,148.03149 84.058153,111.34288 66.618726,81.306469 66.287104,81.283915 65.955483,81.261391 62.113813,85.721061 57.750046,91.194362 29.270988,126.91455 10.857874,167.78188 3.2458867,212.16462 c -1.0393961,6.06035 -1.8898116,11.4123 -1.8898116,11.89321 0,0.51095 30.7029129,0.8744 73.8665439,0.8744 l 73.866551,0 -2.94823,-5.09709 z M 249.90807,111.82543 C 313.86948,1.1798433 311.39441,5.5207259 310.83789,4.9642045 309.65022,3.7765317 277.88741,0.52653946 262.52112,0.02039868 236.8815,-0.82412947 215.95255,1.3689171 191.64734,7.4469307 157.32918,16.028884 122.10812,34.020502 97.358211,55.61169 l -3.512427,3.064149 47.141266,80.279241 c 47.03642,80.10074 47.14441,80.27317 48.56616,77.54567 0.7837,-1.50347 27.94338,-48.60736 60.35486,-104.67532 z m 247.10702,64.80582 c -1.70318,-6.8075 -8.0835,-22.41618 -14.59467,-35.70408 C 462.19334,99.648022 429.82033,63.669654 391.60863,40.00172 381.43013,33.69727 360.73887,23.438472 350.64219,19.690425 L 344.10308,17.263 340.32615,23.767516 C 330.09803,41.382155 251.84151,178.6103 251.84151,178.93139 c 0,0.20337 55.31435,0.36977 122.92079,0.36977 l 122.92078,0 -0.66799,-2.66991 z"
     id="path4367"
     inkscape:connector-curvature="0" /></svg>